<svg width="133" height="133" viewBox="0 0 133 133" fill="none" xmlns="http://www.w3.org/2000/svg">
<path opacity="0.4" d="M95.6206 108.061C99.4699 123.252 105.372 133 112 133C123.598 133 133 103.227 133 66.5C133 29.7731 123.598 0 112 0C103.491 0 96.1825 16.0522 92.8828 39.0881C95.5642 42.0064 95.9754 46.3981 93.4612 49.633C92.9213 50.2687 92.2856 50.8181 91.5765 51.2621C91.2125 56.1631 91.0002 61.2479 91.0002 66.5C90.9873 74.8357 91.5017 83.1639 92.5404 91.436H99.4002C101.626 91.4387 103.76 92.3158 105.333 93.8744C106.906 95.433 107.79 97.5459 107.79 99.7487C107.79 101.952 106.906 104.064 105.333 105.623C103.76 107.182 101.626 108.059 99.4002 108.061H95.6206Z" fill="#58AED2"/>
<path d="M37.3883 24.938C34.9233 24.9381 32.5137 24.2068 30.4641 22.8367C28.4146 21.4666 26.8171 19.5192 25.8738 17.2408C24.9305 14.9624 24.6837 12.4553 25.1646 10.0365C25.6454 7.61772 26.8324 5.39593 28.5754 3.65209C30.3184 1.90826 32.5391 0.720693 34.9567 0.239581C37.3743 -0.24153 39.8802 0.00542006 42.1575 0.949202C44.4348 1.89298 46.3813 3.49121 47.7507 5.54177C49.1201 7.59232 49.851 10.0031 49.851 12.4693C49.8508 15.7761 48.5377 18.9475 46.2006 21.2858C43.8634 23.6241 40.6935 24.9379 37.3883 24.938ZM78.4924 82.47L82.3383 91.436H99.7017C101.903 91.4387 104.014 92.3158 105.57 93.8744C107.126 95.433 108 97.5459 108 99.7487C108 101.952 107.126 104.064 105.57 105.623C104.014 107.182 101.903 108.059 99.7017 108.061H79.5959C77.1564 108.065 74.7699 107.35 72.7329 106.007C70.696 104.664 69.0986 102.752 68.1393 100.508L65.8593 95.1742L68.6261 93.5385C72.9672 90.9433 76.4103 87.0808 78.4924 82.47ZM8.30871 58.185H19.7409L26.5078 44.352C29.7533 37.7158 35.7169 32.8654 42.5486 31.1201L60.9992 25.628C64.6094 24.7525 68.3699 24.6981 72.0038 25.4687C75.6378 26.2394 79.0528 27.8155 81.9975 30.0811L92.2857 37.9796C94.0342 39.3209 95.1785 41.3021 95.4669 43.4875C95.6097 44.5696 95.5381 45.6693 95.2561 46.7237C94.9741 47.7781 94.4874 48.7666 93.8235 49.6327C93.1597 50.4989 92.3319 51.2258 91.3873 51.7719C90.4427 52.318 89.3998 52.6726 88.3183 52.8155C86.1339 53.104 83.9245 52.5126 82.176 51.1713L71.8716 43.2723C69.8837 41.7421 67.3442 41.1942 65.3157 41.6772L61.5023 42.8137L71.2225 65.5157C72.8031 69.2312 72.9817 73.3943 71.7251 77.2316C70.4686 81.0689 67.8624 84.3192 64.3908 86.3787L42.3377 99.4121L49.4615 122.199C49.7887 123.24 49.9076 124.335 49.8114 125.422C49.7152 126.509 49.4058 127.567 48.901 128.534C48.3961 129.501 47.7056 130.359 46.869 131.06C46.0324 131.76 45.0661 132.288 44.0253 132.614C42.9838 132.944 41.8876 133.064 40.7995 132.968C39.7115 132.872 38.6531 132.562 37.6851 132.056C36.717 131.55 35.8585 130.858 35.1587 130.019C34.4589 129.179 33.9317 128.21 33.6073 127.167L25.3962 100.914C24.651 98.2687 24.797 95.4517 25.8119 92.8979C26.8267 90.3441 28.6538 88.1957 31.0109 86.7846L46.9138 77.396L38.7838 57.0607L33.518 67.8252C32.4863 69.9149 30.8927 71.6756 28.9163 72.9094C26.9399 74.1433 24.6588 74.8016 22.3292 74.8105H8.30871C6.1051 74.8105 3.99175 73.9347 2.43356 72.3757C0.875374 70.8168 0 68.7024 0 66.4977C0 64.293 0.875374 62.1787 2.43356 60.6197C3.99175 59.0608 6.1051 58.185 8.30871 58.185V58.185Z" fill="#6245D8"/>
</svg>
